<svg width="135" height="28" viewBox="0 0 135 28" fill="none" xmlns="http://www.w3.org/2000/svg">
<path d="M45.0851 25.4053C43.6631 25.4053 42.3806 25.1578 41.2376 24.6628C40.1036 24.1678 39.1676 23.4613 38.4296 22.5433C37.7006 21.6163 37.2371 20.5183 37.0391 19.2493L40.4141 18.7363C40.7021 19.8883 41.2916 20.7793 42.1826 21.4093C43.0826 22.0393 44.1176 22.3543 45.2876 22.3543C45.9806 22.3543 46.6331 22.2463 47.2451 22.0303C47.8571 21.8143 48.3521 21.4993 48.7301 21.0853C49.1171 20.6713 49.3106 20.1628 49.3106 19.5598C49.3106 19.2898 49.2656 19.0423 49.1756 18.8173C49.0856 18.5833 48.9506 18.3763 48.7706 18.1963C48.5996 18.0163 48.3746 17.8543 48.0956 17.7103C47.8256 17.5573 47.5106 17.4268 47.1506 17.3188L42.1286 15.8338C41.6966 15.7078 41.2286 15.5413 40.7246 15.3343C40.2296 15.1183 39.7571 14.8258 39.3071 14.4568C38.8661 14.0788 38.5016 13.6018 38.2136 13.0258C37.9346 12.4408 37.7951 11.7208 37.7951 10.8658C37.7951 9.61477 38.1101 8.56627 38.7401 7.72027C39.3791 6.86527 40.2341 6.22627 41.3051 5.80327C42.3851 5.38027 43.5821 5.17327 44.8961 5.18227C46.2281 5.19127 47.4161 5.42077 48.4601 5.87077C49.5041 6.31177 50.3771 6.95527 51.0791 7.80127C51.7811 8.64727 52.2761 9.66877 52.5641 10.8658L49.0676 11.4733C48.9236 10.7893 48.6446 10.2088 48.2306 9.73177C47.8256 9.24577 47.3261 8.87677 46.7321 8.62477C46.1471 8.37277 45.5216 8.23777 44.8556 8.21977C44.2076 8.21077 43.6046 8.30977 43.0466 8.51677C42.4976 8.71477 42.0521 9.00277 41.7101 9.38077C41.3771 9.75877 41.2106 10.1998 41.2106 10.7038C41.2106 11.1808 41.3546 11.5723 41.6426 11.8783C41.9306 12.1753 42.2861 12.4138 42.7091 12.5938C43.1411 12.7648 43.5776 12.9088 44.0186 13.0258L47.5016 13.9978C47.9786 14.1238 48.5141 14.2948 49.1081 14.5108C49.7021 14.7268 50.2736 15.0283 50.8226 15.4153C51.3716 15.8023 51.8216 16.3108 52.1726 16.9408C52.5326 17.5708 52.7126 18.3718 52.7126 19.3438C52.7126 20.3518 52.5011 21.2383 52.0781 22.0033C51.6641 22.7593 51.1016 23.3893 50.3906 23.8933C49.6796 24.3973 48.8651 24.7753 47.9471 25.0273C47.0381 25.2793 46.0841 25.4053 45.0851 25.4053Z" fill="#2E294E"/>
<path d="M64.1802 25.0003C63.2172 25.1803 62.2722 25.2568 61.3452 25.2298C60.4272 25.2118 59.6037 25.0453 58.8747 24.7303C58.1457 24.4063 57.5922 23.8978 57.2142 23.2048C56.8812 22.5748 56.7057 21.9313 56.6877 21.2743C56.6697 20.6173 56.6607 19.8748 56.6607 19.0468V6.37027H59.9007V18.8578C59.9007 19.4428 59.9052 19.9558 59.9142 20.3968C59.9322 20.8378 60.0267 21.1978 60.1977 21.4768C60.5217 22.0168 61.0392 22.3183 61.7502 22.3813C62.4612 22.4443 63.2712 22.4083 64.1802 22.2733V25.0003ZM54.0147 12.9718V10.4203H64.1802V12.9718H54.0147Z" fill="#2E294E"/>
<path d="M73.2056 25.4053C71.7296 25.4053 70.4336 25.0858 69.3176 24.4468C68.2016 23.8078 67.3286 22.9213 66.6986 21.7873C66.0776 20.6533 65.7671 19.3483 65.7671 17.8723C65.7671 16.2793 66.0731 14.8978 66.6851 13.7278C67.2971 12.5488 68.1476 11.6353 69.2366 10.9873C70.3256 10.3393 71.5856 10.0153 73.0166 10.0153C74.5286 10.0153 75.8111 10.3708 76.8641 11.0818C77.9261 11.7838 78.7136 12.7783 79.2266 14.0653C79.7396 15.3523 79.9331 16.8688 79.8071 18.6148H76.5806V17.4268C76.5716 15.8428 76.2926 14.6863 75.7436 13.9573C75.1946 13.2283 74.3306 12.8638 73.1516 12.8638C71.8196 12.8638 70.8296 13.2778 70.1816 14.1058C69.5336 14.9248 69.2096 16.1263 69.2096 17.7103C69.2096 19.1863 69.5336 20.3293 70.1816 21.1393C70.8296 21.9493 71.7746 22.3543 73.0166 22.3543C73.8176 22.3543 74.5061 22.1788 75.0821 21.8278C75.6671 21.4678 76.1171 20.9503 76.4321 20.2753L79.6451 21.2473C79.0871 22.5613 78.2231 23.5828 77.0531 24.3118C75.8921 25.0408 74.6096 25.4053 73.2056 25.4053ZM68.1836 18.6148V16.1578H78.2141V18.6148H68.1836Z" fill="#2E294E"/>
<path d="M89.4478 25.4053C87.9717 25.4053 86.6757 25.0858 85.5597 24.4468C84.4437 23.8078 83.5708 22.9213 82.9408 21.7873C82.3198 20.6533 82.0093 19.3483 82.0093 17.8723C82.0093 16.2793 82.3152 14.8978 82.9272 13.7278C83.5392 12.5488 84.3897 11.6353 85.4787 10.9873C86.5677 10.3393 87.8278 10.0153 89.2588 10.0153C90.7708 10.0153 92.0533 10.3708 93.1063 11.0818C94.1683 11.7838 94.9558 12.7783 95.4688 14.0653C95.9818 15.3523 96.1752 16.8688 96.0492 18.6148H92.8228V17.4268C92.8138 15.8428 92.5347 14.6863 91.9857 13.9573C91.4367 13.2283 90.5727 12.8638 89.3937 12.8638C88.0617 12.8638 87.0717 13.2778 86.4237 14.1058C85.7757 14.9248 85.4517 16.1263 85.4517 17.7103C85.4517 19.1863 85.7757 20.3293 86.4237 21.1393C87.0717 21.9493 88.0168 22.3543 89.2588 22.3543C90.0598 22.3543 90.7482 22.1788 91.3242 21.8278C91.9092 21.4678 92.3593 20.9503 92.6743 20.2753L95.8872 21.2473C95.3292 22.5613 94.4652 23.5828 93.2952 24.3118C92.1342 25.0408 90.8518 25.4053 89.4478 25.4053ZM84.4258 18.6148V16.1578H94.4562V18.6148H84.4258Z" fill="#2E294E"/>
<path d="M99.3314 25.0003V5.15527H102.585V25.0003H99.3314Z" fill="#2E294E"/>
<path d="M119.864 25.4053C118.316 25.4053 116.953 25.0903 115.774 24.4603C114.604 23.8303 113.686 22.9438 113.02 21.8008C112.363 20.6578 112.034 19.3168 112.034 17.7778V5.58727L115.328 5.56027V17.6968C115.328 18.4258 115.45 19.0783 115.693 19.6543C115.945 20.2303 116.282 20.7208 116.705 21.1258C117.128 21.5218 117.614 21.8233 118.163 22.0303C118.712 22.2373 119.279 22.3408 119.864 22.3408C120.467 22.3408 121.039 22.2373 121.579 22.0303C122.128 21.8143 122.614 21.5083 123.037 21.1123C123.46 20.7073 123.793 20.2168 124.036 19.6408C124.279 19.0648 124.4 18.4168 124.4 17.6968V5.56027H127.694V17.7778C127.694 19.3168 127.361 20.6578 126.695 21.8008C126.038 22.9438 125.12 23.8303 123.941 24.4603C122.771 25.0903 121.412 25.4053 119.864 25.4053Z" fill="#2E294E"/>
<path d="M131.737 25.0003V5.56027H134.99V25.0003H131.737Z" fill="#2E294E"/>
<rect width="28" height="28" rx="8" fill="#F02632"/>
<circle cx="19" cy="20" r="4" fill="#F8F9F9"/>
<path fill-rule="evenodd" clip-rule="evenodd" d="M16 14C18.2091 14 20 12.2091 20 10C20 7.79086 18.2091 6 16 6C14.3367 6 12.9106 7.01517 12.3073 8.45969C11.597 8.16354 10.8176 8 10 8C6.68629 8 4 10.6863 4 14C4 17.3137 6.68629 20 10 20C13.3137 20 16 17.3137 16 14Z" fill="#F8F9F9"/>
</svg>
